<svg id="Layer_1" data-name="Layer 1" xmlns="http://www.w3.org/2000/svg" viewBox="0 0 78 77.223">
  <title>Logo Horizontal all black 350 px</title>
  <path d="M70.729,84.1H35.271A21.293,21.293,0,0,1,14,62.831V28.151A21.3,21.3,0,0,1,35.271,6.879H70.666c9.21,0,16.794,4.521,19.79,11.8C93.4,25.816,92,33.995,84.842,40.3c-.254.249-3.36,2.637-3.643,2.848L57.626,60.382A7.134,7.134,0,0,1,47.77,59l-10.4-13.428a7.128,7.128,0,1,1,11.271-8.73l6.146,7.934L75.134,29.843a4.429,4.429,0,0,0,1.309-5.686c-.743-1.8-2.507-3.02-5.777-3.02H35.271a7.02,7.02,0,0,0-7.013,7.014v34.68a7.02,7.02,0,0,0,7.013,7.014H70.729a7.02,7.02,0,0,0,7.013-7.014V60.137a7.129,7.129,0,0,1,14.258,0v2.694A21.3,21.3,0,0,1,70.729,84.1" transform="translate(-14 -6.879)" fill="#444545"/>
</svg>
